<svg width="269" height="83" viewBox="0 0 269 83" fill="none" xmlns="http://www.w3.org/2000/svg">
<circle cx="6.272" cy="76.5904" r="5.85" transform="rotate(-90 6.272 76.5904)" fill="#C4C4C4" fill-opacity="0.3"/>
<circle cx="6.27224" cy="29.7903" r="5.85" transform="rotate(-90 6.27224 29.7903)" fill="#C4C4C4" fill-opacity="0.3"/>
<circle cx="6.27224" cy="53.1905" r="5.85" transform="rotate(-90 6.27224 53.1905)" fill="#C4C4C4" fill-opacity="0.3"/>
<circle cx="6.27224" cy="6.39029" r="5.85" transform="rotate(-90 6.27224 6.39029)" fill="#C4C4C4" fill-opacity="0.3"/>
<circle cx="76.472" cy="76.5904" r="5.85" transform="rotate(-90 76.472 76.5904)" fill="#C4C4C4" fill-opacity="0.3"/>
<circle cx="76.472" cy="29.7903" r="5.85" transform="rotate(-90 76.472 29.7903)" fill="#C4C4C4" fill-opacity="0.3"/>
<circle cx="76.472" cy="53.1905" r="5.85" transform="rotate(-90 76.472 53.1905)" fill="#C4C4C4" fill-opacity="0.3"/>
<circle cx="76.472" cy="6.39029" r="5.85" transform="rotate(-90 76.472 6.39029)" fill="#C4C4C4" fill-opacity="0.3"/>
<circle cx="29.6723" cy="76.5904" r="5.85" transform="rotate(-90 29.6723 76.5904)" fill="#C4C4C4" fill-opacity="0.3"/>
<circle cx="29.6723" cy="29.7903" r="5.85" transform="rotate(-90 29.6723 29.7903)" fill="#C4C4C4" fill-opacity="0.3"/>
<circle cx="29.6723" cy="53.1905" r="5.85" transform="rotate(-90 29.6723 53.1905)" fill="#C4C4C4" fill-opacity="0.3"/>
<circle cx="29.6723" cy="6.39029" r="5.85" transform="rotate(-90 29.6723 6.39029)" fill="#C4C4C4" fill-opacity="0.3"/>
<circle cx="99.8722" cy="76.5904" r="5.85" transform="rotate(-90 99.8722 76.5904)" fill="#C4C4C4" fill-opacity="0.3"/>
<circle cx="99.8722" cy="29.7903" r="5.85" transform="rotate(-90 99.8722 29.7903)" fill="#C4C4C4" fill-opacity="0.3"/>
<circle cx="99.8722" cy="53.1905" r="5.85" transform="rotate(-90 99.8722 53.1905)" fill="#C4C4C4" fill-opacity="0.3"/>
<circle cx="99.8722" cy="6.39029" r="5.85" transform="rotate(-90 99.8722 6.39029)" fill="#C4C4C4" fill-opacity="0.3"/>
<circle cx="53.072" cy="76.5904" r="5.85" transform="rotate(-90 53.072 76.5904)" fill="#C4C4C4" fill-opacity="0.3"/>
<circle cx="53.072" cy="29.7903" r="5.85" transform="rotate(-90 53.072 29.7903)" fill="#C4C4C4" fill-opacity="0.3"/>
<circle cx="53.072" cy="53.1905" r="5.85" transform="rotate(-90 53.072 53.1905)" fill="#C4C4C4" fill-opacity="0.3"/>
<circle cx="53.072" cy="6.39029" r="5.85" transform="rotate(-90 53.072 6.39029)" fill="#C4C4C4" fill-opacity="0.3"/>
<circle cx="123.272" cy="76.5904" r="5.85" transform="rotate(-90 123.272 76.5904)" fill="#C4C4C4" fill-opacity="0.3"/>
<circle cx="123.272" cy="29.7903" r="5.85" transform="rotate(-90 123.272 29.7903)" fill="#C4C4C4" fill-opacity="0.3"/>
<circle cx="123.272" cy="53.1905" r="5.85" transform="rotate(-90 123.272 53.1905)" fill="#C4C4C4" fill-opacity="0.3"/>
<circle cx="123.272" cy="6.39029" r="5.85" transform="rotate(-90 123.272 6.39029)" fill="#C4C4C4" fill-opacity="0.3"/>
<circle cx="145.501" cy="76.5904" r="5.85" transform="rotate(-90 145.501 76.5904)" fill="#C4C4C4" fill-opacity="0.3"/>
<circle cx="145.502" cy="29.7903" r="5.85" transform="rotate(-90 145.502 29.7903)" fill="#C4C4C4" fill-opacity="0.3"/>
<circle cx="145.502" cy="53.1905" r="5.85" transform="rotate(-90 145.502 53.1905)" fill="#C4C4C4" fill-opacity="0.3"/>
<circle cx="145.502" cy="6.39029" r="5.85" transform="rotate(-90 145.502 6.39029)" fill="#C4C4C4" fill-opacity="0.3"/>
<circle cx="215.702" cy="76.5904" r="5.85" transform="rotate(-90 215.702 76.5904)" fill="#C4C4C4" fill-opacity="0.3"/>
<circle cx="215.702" cy="29.7903" r="5.85" transform="rotate(-90 215.702 29.7903)" fill="#C4C4C4" fill-opacity="0.3"/>
<circle cx="215.702" cy="53.1905" r="5.85" transform="rotate(-90 215.702 53.1905)" fill="#C4C4C4" fill-opacity="0.3"/>
<circle cx="215.702" cy="6.39029" r="5.85" transform="rotate(-90 215.702 6.39029)" fill="#C4C4C4" fill-opacity="0.3"/>
<circle cx="168.902" cy="76.5904" r="5.85" transform="rotate(-90 168.902 76.5904)" fill="#C4C4C4" fill-opacity="0.3"/>
<circle cx="168.902" cy="29.7903" r="5.85" transform="rotate(-90 168.902 29.7903)" fill="#C4C4C4" fill-opacity="0.3"/>
<circle cx="168.902" cy="53.1905" r="5.85" transform="rotate(-90 168.902 53.1905)" fill="#C4C4C4" fill-opacity="0.3"/>
<circle cx="168.902" cy="6.39029" r="5.85" transform="rotate(-90 168.902 6.39029)" fill="#C4C4C4" fill-opacity="0.3"/>
<circle cx="239.102" cy="76.5904" r="5.85" transform="rotate(-90 239.102 76.5904)" fill="#C4C4C4" fill-opacity="0.3"/>
<circle cx="239.102" cy="29.7903" r="5.85" transform="rotate(-90 239.102 29.7903)" fill="#C4C4C4" fill-opacity="0.3"/>
<circle cx="239.102" cy="53.1905" r="5.85" transform="rotate(-90 239.102 53.1905)" fill="#C4C4C4" fill-opacity="0.3"/>
<circle cx="239.102" cy="6.39029" r="5.85" transform="rotate(-90 239.102 6.39029)" fill="#C4C4C4" fill-opacity="0.3"/>
<circle cx="192.302" cy="76.5904" r="5.85" transform="rotate(-90 192.302 76.5904)" fill="#C4C4C4" fill-opacity="0.3"/>
<circle cx="192.302" cy="29.7903" r="5.85" transform="rotate(-90 192.302 29.7903)" fill="#C4C4C4" fill-opacity="0.3"/>
<circle cx="192.302" cy="53.1905" r="5.85" transform="rotate(-90 192.302 53.1905)" fill="#C4C4C4" fill-opacity="0.3"/>
<circle cx="192.302" cy="6.39029" r="5.85" transform="rotate(-90 192.302 6.39029)" fill="#C4C4C4" fill-opacity="0.3"/>
<circle cx="262.502" cy="76.5904" r="5.85" transform="rotate(-90 262.502 76.5904)" fill="#C4C4C4" fill-opacity="0.3"/>
<circle cx="262.502" cy="29.7903" r="5.85" transform="rotate(-90 262.502 29.7903)" fill="#C4C4C4" fill-opacity="0.3"/>
<circle cx="262.502" cy="53.1905" r="5.85" transform="rotate(-90 262.502 53.1905)" fill="#C4C4C4" fill-opacity="0.3"/>
<circle cx="262.502" cy="6.39029" r="5.85" transform="rotate(-90 262.502 6.39029)" fill="#C4C4C4" fill-opacity="0.3"/>
</svg>
