<svg width="56" height="53" viewBox="0 0 56 53" fill="none" xmlns="http://www.w3.org/2000/svg">
<path d="M56 25.1519C56 38.6829 43.463 49.6519 28 49.6519C25.2268 49.6556 22.4651 49.2955 19.7855 48.5809C17.7415 49.6169 13.048 51.6049 5.152 52.8999C4.452 53.0119 3.92 52.2839 4.1965 51.6329C5.4355 48.7069 6.5555 44.8079 6.8915 41.2519C2.604 36.9469 0 31.3119 0 25.1519C0 11.6209 12.537 0.651855 28 0.651855C43.463 0.651855 56 11.6209 56 25.1519ZM25.179 20.8329C24.9483 20.4885 24.682 20.1694 24.3845 19.8809C23.9167 19.3992 23.3591 19.0139 22.743 18.7469L22.715 18.7329C21.8861 18.348 20.9829 18.1497 20.069 18.1519C16.716 18.1519 14 20.7629 14 23.9864C14 27.2064 16.716 29.8174 20.069 29.8174C21.2695 29.8174 22.386 29.4849 23.3275 28.9074C22.848 30.2689 21.9625 31.7214 20.4925 33.1774C20.354 33.3125 20.2447 33.4746 20.1712 33.6536C20.0978 33.8326 20.0617 34.0247 20.0653 34.2182C20.069 34.4116 20.1121 34.6023 20.1922 34.7784C20.2723 34.9546 20.3876 35.1125 20.531 35.2424C21.1365 35.8024 22.0955 35.7849 22.68 35.2074C27.349 30.5559 27.475 25.5544 25.9735 22.2364C25.7529 21.7459 25.487 21.2772 25.179 20.8364V20.8329ZM38.5 28.9074C38.024 30.2689 37.135 31.7214 35.665 33.1774C35.5268 33.3127 35.4177 33.475 35.3445 33.6541C35.2714 33.8333 35.2356 34.0255 35.2396 34.2189C35.2435 34.4124 35.287 34.603 35.3674 34.779C35.4478 34.955 35.5634 35.1127 35.707 35.2424C36.309 35.8024 37.268 35.7849 37.8525 35.2074C42.5215 30.5559 42.6475 25.5544 41.1495 22.2364C40.9277 21.7458 40.6606 21.2771 40.3515 20.8364C40.121 20.4908 39.8547 20.1705 39.557 19.8809C39.0893 19.3991 38.5316 19.0138 37.9155 18.7469L37.8875 18.7329C37.0597 18.3485 36.1577 18.1502 35.245 18.1519C31.8955 18.1519 29.176 20.7629 29.176 23.9864C29.176 27.2064 31.8955 29.8174 35.245 29.8174C36.4455 29.8174 37.562 29.4849 38.5035 28.9074H38.5Z" fill="#4579CB"/>
</svg>
